<?xml version="1.0" standalone="no"?>
<!DOCTYPE svg PUBLIC "-//W3C//DTD SVG 20010904//EN"
 "http://www.w3.org/TR/2001/REC-SVG-20010904/DTD/svg10.dtd">
<svg version="1.0" xmlns="http://www.w3.org/2000/svg"
 width="720.000000pt" height="720.000000pt" viewBox="0 0 720.000000 720.000000"
 preserveAspectRatio="xMidYMid meet">
<metadata>
Created by potrace 1.14, written by Peter Selinger 2001-2017
</metadata>
<g transform="translate(0.000000,720.000000) scale(0.100000,-0.100000)"
fill="#000000" stroke="none">
<path d="M3450 6235 c-8 -9 -17 -12 -24 -6 -6 5 -20 5 -31 1 -11 -4 -28 -3
-37 2 -12 6 -18 5 -18 -3 0 -8 -5 -7 -17 2 -9 8 -14 9 -10 3 10 -16 -18 -25
-33 -11 -10 9 -11 9 -6 0 5 -9 -1 -12 -23 -9 -17 2 -40 -4 -52 -12 -21 -14
-22 -14 -16 3 6 14 5 16 -6 7 -8 -7 -18 -8 -22 -4 -5 4 -5 1 -1 -5 5 -9 0 -12
-16 -12 -13 1 -32 -2 -42 -6 -12 -5 -17 -5 -13 2 3 5 0 10 -7 10 -8 0 -12 -6
-10 -12 6 -14 -26 -16 -43 -3 -8 7 -16 3 -25 -11 -7 -12 -16 -21 -21 -21 -4 0
-5 4 -2 10 3 6 -1 7 -9 4 -9 -3 -14 -10 -11 -15 3 -4 -3 -6 -15 -4 -11 2 -22
-1 -26 -6 -3 -5 -14 -7 -25 -4 -14 5 -19 2 -19 -12 0 -13 -2 -15 -9 -5 -7 11
-11 11 -24 -2 -17 -17 -32 -22 -22 -7 3 5 0 13 -6 17 -7 4 -9 3 -6 -3 4 -6 -1
-17 -10 -24 -11 -10 -14 -10 -9 -2 5 9 2 11 -8 7 -9 -3 -16 -10 -16 -15 0 -4
-7 -6 -15 -3 -8 4 -15 1 -15 -5 0 -6 -3 -10 -7 -9 -20 6 -74 -13 -67 -23 4 -8
0 -8 -15 0 -17 9 -21 9 -19 -1 2 -7 -3 -12 -9 -11 -7 2 -13 -2 -13 -7 0 -5 -3
-9 -7 -8 -17 4 -53 -14 -47 -24 4 -6 -1 -6 -14 1 -15 8 -23 8 -28 -1 -5 -7 -2
-9 7 -4 8 4 5 0 -5 -8 -11 -9 -26 -16 -33 -16 -7 0 -13 -6 -13 -12 0 -9 -4 -8
-10 2 -8 13 -14 8 -12 -10 0 -3 -9 -7 -21 -7 -12 -1 -27 -9 -33 -17 -8 -12
-13 -13 -24 -3 -10 10 -12 9 -7 -5 7 -20 -16 -31 -32 -15 -7 7 -12 8 -11 2 4
-19 0 -38 -7 -32 -3 4 -12 -1 -20 -11 -9 -10 -11 -11 -7 -2 7 12 5 13 -8 3 -8
-7 -18 -10 -22 -6 -4 4 -4 -1 0 -12 4 -11 3 -17 -1 -12 -5 4 -17 -1 -28 -10
-11 -10 -17 -13 -14 -6 4 6 3 15 -3 18 -6 4 -10 3 -9 -2 1 -4 1 -16 0 -27 -1
-16 -3 -17 -18 -5 -13 11 -15 11 -9 1 5 -9 -2 -17 -23 -25 -19 -7 -29 -17 -26
-25 2 -7 1 -11 -4 -7 -5 3 -16 -1 -24 -9 -8 -8 -17 -13 -20 -10 -3 3 -10 -4
-17 -15 -6 -12 -18 -21 -26 -21 -11 0 -14 -5 -10 -16 6 -15 4 -15 -11 -3 -11
9 -14 10 -9 2 6 -12 -4 -18 -26 -14 -4 0 -4 -7 -1 -16 5 -13 2 -15 -14 -11
-16 4 -19 2 -16 -12 3 -13 -1 -18 -14 -17 -10 1 -17 -4 -15 -11 1 -8 -7 -16
-18 -19 -11 -3 -17 -9 -14 -14 3 -5 -1 -9 -8 -9 -8 0 -23 -7 -34 -15 -19 -15
-19 -15 1 -9 20 7 20 7 0 -9 -11 -8 -24 -13 -28 -10 -5 3 -7 -3 -5 -13 2 -10
-3 -19 -9 -20 -7 -1 -18 -2 -24 -3 -5 0 -7 -5 -4 -11 3 -5 -2 -10 -12 -10 -15
0 -16 -2 -3 -10 13 -8 12 -10 -5 -11 -11 -1 -24 -1 -28 0 -5 1 -6 -3 -2 -9 3
-5 -7 -23 -24 -39 -16 -16 -27 -31 -24 -34 2 -3 -5 -10 -16 -17 -12 -6 -18
-16 -15 -22 4 -7 3 -8 -4 -4 -8 4 -16 -3 -22 -18 -5 -14 -12 -26 -15 -26 -4 0
-3 6 1 13 4 7 3 9 -2 4 -5 -5 -10 -13 -10 -18 -1 -5 -2 -14 -3 -20 0 -5 -6 -7
-13 -3 -8 5 -9 2 -4 -11 5 -15 4 -16 -8 -6 -12 10 -13 8 -9 -10 4 -15 3 -20
-5 -15 -11 6 -16 -6 -13 -26 0 -5 -6 -8 -14 -8 -9 0 -12 -6 -8 -17 4 -11 3
-14 -5 -9 -7 4 -12 1 -12 -9 0 -9 -4 -13 -10 -10 -6 4 -10 -6 -10 -22 0 -22
-2 -25 -10 -13 -8 12 -10 10 -10 -8 0 -13 -4 -20 -10 -17 -6 4 -10 3 -9 -2 3
-20 -2 -34 -10 -28 -6 3 -8 -4 -6 -15 3 -13 -5 -26 -21 -37 -19 -12 -22 -18
-12 -24 10 -7 9 -9 -4 -9 -9 0 -20 -5 -24 -12 -4 -7 -3 -8 4 -4 7 4 12 3 12
-2 0 -6 -7 -12 -15 -16 -8 -3 -15 -9 -14 -13 3 -20 -2 -34 -11 -28 -5 3 -10
-1 -10 -10 0 -10 5 -13 12 -9 7 4 8 3 4 -5 -4 -6 -12 -9 -17 -6 -9 6 -13 -7
-10 -32 1 -6 -8 -18 -19 -26 -12 -8 -20 -21 -18 -28 2 -8 -3 -13 -10 -11 -6 1
-11 -1 -11 -5 4 -25 -2 -53 -11 -48 -6 3 -10 2 -10 -4 0 -5 6 -12 13 -14 7 -3
4 -6 -7 -6 -16 -1 -17 -3 -5 -18 7 -10 9 -15 5 -11 -5 5 -18 -6 -28 -22 -18
-31 -26 -57 -8 -30 7 10 10 11 10 2 0 -7 -7 -15 -15 -18 -8 -4 -13 -10 -10
-14 9 -14 -6 -40 -19 -33 -6 4 -5 -1 3 -10 10 -13 10 -17 1 -17 -7 0 -10 -8
-7 -19 3 -12 -1 -22 -10 -25 -12 -5 -13 -9 -3 -21 10 -12 9 -16 -2 -20 -7 -3
-15 -15 -15 -27 -1 -12 -8 -25 -15 -29 -10 -7 -10 -9 2 -9 12 -1 11 -3 -3 -11
-14 -8 -16 -14 -6 -25 7 -8 7 -14 1 -14 -5 0 -13 -7 -16 -16 -4 -10 -2 -13 7
-8 9 6 9 4 -1 -8 -10 -13 -10 -17 0 -21 8 -3 6 -6 -5 -6 -11 -1 -15 -6 -11
-12 3 -6 0 -15 -7 -20 -12 -7 -12 -9 0 -9 11 0 11 -3 0 -16 -10 -13 -10 -17 2
-25 13 -8 6 -13 -13 -10 -4 0 -3 -11 2 -25 8 -21 8 -25 -3 -21 -8 3 -14 -1
-14 -9 0 -7 4 -11 9 -8 9 6 5 -32 -5 -42 -3 -4 -2 -16 4 -27 9 -15 8 -18 -1
-12 -10 6 -12 1 -8 -19 4 -21 2 -26 -10 -21 -13 5 -13 3 -2 -11 11 -13 11 -17
1 -24 -11 -6 -11 -8 0 -12 12 -4 12 -7 0 -21 -12 -15 -11 -17 5 -18 18 0 18
-1 -1 -9 -11 -5 -14 -9 -6 -9 10 -1 11 -4 2 -15 -9 -11 -9 -15 1 -19 10 -4 10
-6 -1 -6 -11 -1 -11 -4 0 -18 8 -9 9 -14 3 -10 -14 8 -14 -75 0 -85 7 -5 5 -8
-4 -8 -9 0 -16 -9 -16 -19 0 -11 4 -17 8 -15 4 3 8 0 8 -5 0 -6 -5 -11 -10
-11 -7 0 -7 -6 0 -19 13 -26 13 -34 -2 -25 -6 4 -8 3 -5 -4 4 -5 8 -29 9 -51
1 -23 6 -41 12 -41 6 0 4 -5 -4 -10 -9 -6 -11 -13 -5 -17 13 -11 18 -36 5 -28
-5 3 -10 1 -10 -4 0 -6 6 -11 13 -11 9 0 8 -3 -2 -9 -11 -7 -11 -9 0 -14 12
-4 11 -7 -1 -16 -8 -6 -10 -11 -4 -11 7 0 14 -9 17 -20 3 -11 2 -18 -3 -15 -4
3 -10 -2 -14 -10 -3 -8 3 -19 12 -24 14 -8 14 -10 2 -11 -13 0 -13 -1 0 -10
13 -9 13 -10 0 -10 -12 -1 -11 -3 3 -11 12 -7 15 -14 8 -22 -14 -17 -14 -19 3
-51 8 -16 12 -35 9 -42 -3 -8 1 -14 8 -14 12 0 12 -2 1 -9 -17 -10 -17 -21 -1
-31 7 -5 12 -22 11 -39 0 -17 3 -31 7 -31 11 0 8 -44 -3 -53 -6 -5 0 -6 14 -2
24 6 24 5 6 -9 -16 -13 -17 -16 -4 -16 9 0 18 -9 21 -20 3 -11 1 -18 -4 -14
-5 3 -6 -2 -3 -10 3 -9 11 -16 18 -16 6 0 4 -5 -4 -10 -10 -6 -11 -10 -2 -10
6 0 12 -9 12 -19 0 -11 6 -22 13 -24 9 -4 9 -6 -1 -6 -10 -1 -10 -5 2 -16 8
-9 13 -22 10 -30 -3 -8 2 -22 11 -31 13 -14 14 -19 3 -25 -10 -7 -9 -9 4 -9
10 0 17 -3 16 -7 -4 -16 14 -53 25 -54 7 0 3 -4 -8 -9 -18 -8 -18 -9 -2 -9 10
-1 15 -5 12 -11 -3 -6 2 -10 12 -11 16 0 16 -1 -2 -9 -14 -6 -16 -9 -5 -10 8
-2 18 -2 21 -2 3 1 6 -5 6 -13 0 -8 -5 -11 -11 -8 -6 4 2 -10 17 -30 20 -26
23 -35 11 -30 -12 4 -15 3 -10 -5 4 -7 14 -12 23 -12 13 0 13 -3 2 -17 -7 -10
-9 -15 -5 -11 13 11 36 -11 36 -34 0 -12 4 -17 12 -12 7 5 8 3 4 -5 -5 -7 0
-19 10 -27 11 -9 13 -13 7 -9 -8 4 -13 0 -13 -9 0 -9 6 -15 13 -13 6 1 11 -6
11 -15 -1 -10 2 -15 7 -12 5 3 9 0 9 -6 0 -6 5 -8 13 -4 7 5 6 0 -3 -11 -12
-15 -12 -17 -1 -10 11 6 13 4 8 -9 -4 -10 -3 -15 3 -11 6 3 11 1 11 -4 1 -6 2
-15 3 -20 0 -5 5 -13 10 -18 5 -5 6 -2 1 6 -6 10 -4 12 4 7 7 -5 10 -15 7 -23
-4 -8 -1 -11 5 -8 6 4 13 -2 16 -14 3 -11 9 -18 14 -16 4 3 6 -4 4 -15 -2 -11
1 -20 6 -20 6 0 17 -7 25 -15 9 -8 12 -15 8 -15 -4 0 1 -7 12 -16 10 -8 13
-12 6 -9 -11 6 -11 3 -1 -13 7 -12 17 -18 21 -16 4 3 8 -2 8 -11 0 -9 9 -19
21 -22 16 -4 17 -8 7 -14 -10 -7 -11 -9 0 -9 8 0 10 -5 6 -13 -5 -7 0 -6 11 3
10 8 16 10 12 3 -4 -7 4 -23 18 -37 14 -14 25 -33 25 -43 0 -15 2 -16 10 -3 8
12 10 11 10 -7 0 -13 3 -22 8 -22 19 3 32 -2 32 -14 0 -14 61 -72 72 -69 5 1
7 -1 7 -6 -3 -20 3 -32 16 -32 9 0 19 -10 24 -22 5 -13 11 -22 15 -20 12 4 29
2 23 -4 -6 -7 16 -34 28 -34 12 0 34 -27 28 -34 -4 -3 4 -6 16 -6 12 0 19 -4
16 -10 -3 -5 2 -10 11 -10 10 0 14 -3 11 -6 -11 -11 43 -46 60 -40 13 5 14 4
4 -8 -9 -11 -9 -16 0 -22 8 -4 9 -3 5 4 -14 23 6 11 30 -18 14 -16 28 -29 32
-28 7 2 54 -21 62 -31 13 -16 53 -44 46 -34 -5 9 -2 11 8 7 9 -3 13 -10 10
-15 -5 -8 9 -13 29 -10 4 0 7 -4 7 -10 0 -5 4 -7 10 -4 5 3 10 0 10 -8 0 -8 7
-18 16 -21 10 -4 13 -2 8 7 -6 9 -5 9 8 0 8 -7 19 -9 23 -5 5 4 6 0 2 -10 -4
-12 0 -15 18 -13 16 1 26 -4 30 -16 3 -10 12 -16 19 -13 7 3 16 -2 19 -10 4
-9 16 -16 27 -16 13 0 19 -4 14 -11 -4 -8 1 -9 16 -4 15 5 20 3 16 -3 -3 -6
-2 -13 4 -17 5 -3 10 0 10 7 0 8 3 9 8 3 4 -5 17 -18 29 -28 16 -14 23 -15 29
-6 5 8 3 10 -6 4 -9 -5 -11 -4 -6 4 4 6 12 9 17 5 5 -3 7 -9 4 -13 -2 -5 7
-13 22 -20 22 -10 25 -10 17 1 -5 8 -1 5 8 -5 10 -11 24 -17 32 -14 7 3 19 0
25 -6 6 -6 11 -7 11 -2 0 5 7 0 16 -11 8 -10 12 -12 8 -4 -7 13 -5 13 9 2 9
-8 22 -10 28 -6 8 4 9 3 5 -4 -5 -8 0 -12 13 -12 11 0 23 -5 26 -10 5 -8 12
-7 23 2 12 10 14 10 8 1 -5 -9 0 -13 13 -13 12 0 21 -5 21 -10 0 -7 7 -7 22 1
17 9 20 9 15 -3 -3 -9 1 -15 9 -15 8 0 14 5 15 11 0 6 4 2 9 -9 5 -11 9 -15 9
-8 1 8 14 6 43 -7 30 -13 48 -16 65 -9 16 6 22 5 18 -1 -9 -14 8 -12 24 3 11
10 13 10 7 0 -4 -7 -2 -13 4 -13 6 0 8 -5 4 -12 -5 -8 -1 -8 10 1 10 9 20 11
24 5 10 -13 32 -16 32 -3 0 6 5 7 13 2 19 -12 49 -14 42 -3 -3 6 1 7 9 4 9 -3
14 -9 12 -13 -2 -3 15 -6 39 -6 24 0 41 3 39 7 -3 4 2 5 10 2 9 -3 16 -11 16
-16 0 -6 6 -5 15 2 12 10 15 10 15 0 0 -10 3 -10 14 -1 11 9 15 9 18 0 3 -9 9
-9 25 0 13 7 24 7 28 2 3 -6 18 -9 33 -7 15 1 35 -2 46 -7 10 -5 16 -5 13 0
-3 5 9 9 28 9 21 0 31 -4 27 -10 -3 -6 7 -3 22 8 16 10 25 13 21 7 -7 -13 39
-11 51 2 4 4 12 7 18 7 6 0 4 -5 -4 -10 -12 -8 -10 -10 10 -7 14 1 31 6 38 10
7 5 12 4 12 -3 0 -8 6 -8 20 0 14 8 20 8 20 0 0 -7 6 -8 18 -1 13 7 23 6 32
-2 10 -10 11 -9 5 2 -6 11 -4 13 8 8 10 -4 17 0 20 11 4 15 5 15 6 -1 1 -14 5
-16 20 -8 10 6 21 8 24 4 4 -3 13 0 22 7 10 8 15 9 15 1 0 -6 5 -11 11 -11 6
0 8 7 5 16 -3 8 -2 12 4 9 5 -3 19 -8 31 -10 18 -4 19 -2 7 12 -11 14 -11 16
1 8 20 -12 61 -15 61 -4 0 5 5 9 11 9 5 0 7 -4 4 -10 -3 -6 1 -7 9 -4 9 3 16
10 16 15 0 5 5 9 11 9 5 0 7 -6 4 -12 -4 -7 1 -4 9 6 11 13 16 15 16 6 0 -10
4 -10 18 2 18 17 46 13 36 -4 -4 -7 -2 -8 4 -4 7 4 12 15 12 24 0 13 2 14 9 3
6 -10 10 -10 16 -1 4 6 13 9 21 6 8 -3 14 0 14 6 0 6 3 8 7 5 3 -4 13 -1 21 6
13 9 14 9 8 0 -5 -9 -2 -11 8 -7 9 3 13 10 10 15 -3 5 0 9 5 9 6 0 11 -5 11
-12 0 -6 7 -3 16 8 8 10 13 14 10 8 -3 -6 1 -11 9 -11 8 0 13 5 12 11 -1 6 4
10 12 8 22 -5 52 9 45 20 -4 7 -2 8 5 4 6 -4 19 -2 28 6 14 11 16 11 8 -2 -7
-12 -6 -13 7 -3 8 7 18 10 21 6 4 -3 7 -1 7 6 0 8 6 11 16 7 12 -5 15 -2 10
10 -6 15 -4 15 11 3 15 -12 16 -12 10 3 -5 15 -2 16 18 8 18 -7 24 -6 22 2 -1
7 5 13 13 13 8 0 14 6 13 11 -1 7 8 9 22 6 16 -3 27 1 31 11 3 9 14 14 25 12
11 -2 17 0 14 6 -4 5 -1 9 6 9 6 0 18 8 25 18 13 16 14 16 8 -3 -5 -18 -3 -18
12 2 9 13 25 23 36 23 10 0 16 4 13 10 -3 5 3 10 15 10 11 0 23 7 26 15 8 21
25 19 18 -2 -3 -10 4 -3 16 15 13 19 28 31 36 28 9 -3 14 1 14 12 0 15 2 15
10 2 9 -13 14 -7 11 13 0 4 4 7 10 7 6 0 17 7 26 16 9 8 22 13 30 10 8 -3 11
-1 8 4 -3 6 -1 10 5 10 6 0 9 4 5 9 -3 6 3 8 14 6 15 -3 18 0 14 12 -4 10 -2
14 5 9 6 -3 17 3 25 15 11 15 16 17 20 7 4 -9 6 -8 6 3 1 9 11 24 24 35 12 10
16 12 10 4 -22 -25 -14 -30 10 -7 13 12 22 24 20 26 -4 6 41 36 50 33 5 -1 6
2 2 8 -3 5 2 10 12 10 15 0 16 2 3 10 -13 8 -13 10 2 10 10 0 22 9 28 20 6 11
18 20 26 20 8 0 13 4 9 9 -3 5 4 12 15 16 11 3 20 11 20 16 0 6 6 7 13 3 8 -6
8 -3 -1 9 -12 14 -11 16 8 12 18 -3 20 -2 10 10 -7 8 -10 16 -6 16 3 1 11 3
16 4 6 1 15 3 21 4 5 0 8 5 4 10 -3 5 4 12 15 16 11 3 20 13 20 21 0 8 5 14
12 14 6 0 8 3 5 7 -4 3 8 17 26 31 17 14 23 22 13 18 -16 -5 -17 -4 -6 9 7 8
16 13 20 10 4 -3 11 2 14 11 4 10 2 13 -7 8 -9 -5 -9 -4 -1 5 6 7 19 14 29 15
10 1 20 13 22 25 2 13 16 35 31 50 16 14 31 34 35 44 3 9 12 17 18 17 8 0 8 4
-1 15 -11 13 -10 14 4 9 11 -4 16 -2 14 7 -2 8 2 13 9 12 8 -2 10 4 6 14 -5
12 -2 15 10 10 12 -4 14 -2 10 10 -4 10 3 23 18 35 13 11 18 17 11 13 -10 -5
-10 -1 -1 19 7 14 17 23 22 19 7 -4 8 0 4 11 -6 14 -3 17 8 12 13 -4 14 -2 5
14 -8 16 -8 20 2 18 7 -2 13 5 13 14 0 9 4 20 9 25 5 5 6 2 1 -6 -5 -10 -4
-12 4 -7 6 4 10 15 9 24 -2 12 3 16 17 15 11 -1 14 0 8 3 -7 3 -13 15 -12 27
0 12 3 16 6 9 4 -10 8 -9 18 5 9 12 10 23 4 35 -7 13 -5 16 9 13 11 -2 19 3
19 10 0 8 -4 12 -9 9 -4 -3 -5 2 -2 10 3 9 11 13 17 9 6 -4 8 0 4 11 -4 10 -1
19 8 22 8 4 15 10 15 16 0 5 -4 6 -10 3 -6 -3 -7 1 -4 9 3 9 11 13 16 10 6 -4
4 4 -3 17 -11 21 -10 22 3 12 15 -13 17 -9 19 40 0 16 11 22 32 18 5 -1 6 3 2
9 -3 6 -12 7 -18 3 -7 -4 -7 0 1 10 8 9 11 21 7 27 -3 5 -1 10 4 10 6 0 11 10
11 23 0 18 2 19 10 7 13 -20 13 -4 0 21 -8 15 -8 19 2 17 7 -2 12 3 10 11 -2
8 3 18 10 23 10 6 10 10 -2 18 -8 5 -10 10 -5 10 6 0 16 9 23 21 10 15 10 19
1 14 -7 -5 -10 -3 -7 6 3 8 11 13 18 11 11 -3 11 0 0 12 -10 13 -10 16 1 16
10 0 10 3 1 12 -10 10 -8 16 10 30 17 13 18 16 5 12 -17 -6 -17 -4 2 29 12 21
16 39 11 42 -6 4 -10 12 -10 18 0 7 4 6 10 -3 7 -11 10 -6 10 22 0 20 6 39 13
41 9 4 8 6 -2 6 -11 1 -11 4 0 17 10 13 10 17 -2 25 -11 7 -11 9 0 9 9 0 12 9
9 30 -3 17 -1 30 2 30 4 0 5 12 2 26 -3 16 -1 25 5 21 5 -3 10 0 10 8 0 8 -4
12 -9 9 -4 -3 -8 2 -8 10 0 9 4 16 8 16 5 0 9 7 9 15 0 8 -5 11 -10 8 -6 -4
-8 1 -4 11 4 10 7 20 7 22 0 3 5 2 12 -2 7 -5 8 -3 2 7 -13 21 -16 51 -4 44
15 -9 12 2 -6 19 -14 15 -14 16 3 16 17 1 17 2 -1 15 -18 13 -18 15 -3 15 15
0 16 4 7 20 -8 15 -8 20 2 20 9 0 9 3 -2 10 -13 9 -13 10 0 10 11 1 10 4 -4
15 -17 13 -17 15 -3 15 13 0 15 5 8 23 -6 14 -5 30 1 41 8 14 7 17 -1 12 -6
-4 -11 -3 -11 3 0 5 6 12 13 14 6 3 3 6 -8 6 -17 1 -17 3 -5 11 8 5 11 10 7
10 -4 0 -2 10 4 23 11 20 11 21 -4 9 -13 -11 -15 -11 -13 0 1 7 5 19 10 26 4
7 3 19 -3 26 -7 9 -7 16 2 26 10 10 9 11 -2 5 -10 -6 -11 -2 -6 15 4 13 3 20
-2 17 -5 -3 -7 10 -5 29 3 24 0 34 -9 34 -11 0 -11 3 1 10 13 9 13 11 0 20
-13 9 -13 10 0 10 9 0 11 3 5 8 -6 4 -10 14 -10 22 1 8 -5 22 -13 32 -9 11
-10 18 -2 23 8 5 8 10 0 20 -8 10 -8 15 0 20 8 5 6 13 -6 26 -11 12 -13 19 -5
19 7 0 9 5 6 10 -4 6 -12 7 -18 3 -8 -4 -7 -1 1 9 11 13 9 22 -7 52 -13 22
-16 38 -10 42 6 3 3 18 -9 38 -14 23 -17 38 -10 50 5 9 6 16 1 15 -20 -3 -24
2 -13 16 11 13 10 14 -3 9 -11 -4 -15 0 -12 13 1 10 -5 27 -14 37 -9 11 -11
16 -4 13 8 -5 8 -1 0 17 -7 13 -16 22 -22 18 -5 -3 -4 2 4 11 10 13 10 17 1
17 -7 0 -10 7 -6 15 3 9 0 15 -9 15 -8 0 -12 8 -10 20 2 11 -1 20 -7 20 -5 0
-8 7 -5 15 4 8 1 17 -5 21 -7 5 -8 2 -3 -6 5 -8 4 -11 -3 -7 -5 4 -8 17 -4 29
3 14 2 19 -6 14 -8 -5 -13 1 -14 16 0 13 -2 29 -2 36 -1 8 -9 19 -19 26 -9 7
-17 19 -17 25 0 7 -6 9 -12 5 -10 -5 -10 -4 0 7 10 11 8 16 -10 26 -13 7 -17
12 -10 13 6 0 12 5 12 11 0 5 -4 7 -10 4 -6 -3 -10 1 -10 9 0 9 -4 16 -10 16
-5 0 -10 7 -10 16 0 9 -5 12 -12 8 -8 -5 -9 -2 -5 9 4 10 0 20 -11 26 -10 7
-12 11 -4 11 10 0 10 3 0 14 -7 8 -16 12 -20 9 -5 -2 -8 1 -8 6 0 6 6 11 13
12 6 0 2 4 -10 9 -13 5 -23 17 -23 25 0 9 -4 13 -10 10 -6 -3 -7 1 -4 9 3 9 1
16 -6 16 -6 0 -8 5 -5 10 3 6 -1 10 -9 10 -10 0 -13 6 -9 17 4 10 2 14 -5 9
-10 -6 -29 29 -24 46 1 4 -6 4 -15 1 -10 -4 -14 -2 -10 4 4 6 0 14 -9 17 -10
4 -14 14 -11 26 3 11 1 18 -4 14 -13 -8 -83 69 -72 80 4 3 -1 6 -11 6 -9 0
-14 5 -11 10 3 6 1 10 -5 10 -6 0 -9 3 -7 8 2 4 -6 17 -19 29 -15 15 -24 18
-27 10 -3 -7 -6 -2 -6 11 -1 14 -7 22 -18 22 -9 0 -14 3 -10 6 3 4 -1 13 -9
21 -8 8 -11 19 -8 25 4 5 -4 5 -16 -2 -20 -11 -22 -10 -17 4 5 12 0 20 -16 26
-12 5 -18 9 -14 9 4 1 -1 10 -12 22 -11 13 -24 18 -32 14 -7 -5 -10 -4 -5 3 3
6 -3 17 -15 26 -12 8 -18 19 -15 24 4 6 -4 9 -18 8 -18 -2 -23 1 -18 12 3 10
1 13 -6 8 -8 -4 -12 0 -12 11 0 15 -2 16 -10 3 -9 -13 -10 -13 -11 0 -1 8 -1
19 0 23 1 5 -3 6 -9 2 -5 -3 -10 -1 -10 4 0 6 -5 11 -11 11 -7 0 -18 8 -26 18
-9 10 -11 11 -7 2 4 -8 -5 -3 -21 13 -15 15 -32 27 -37 27 -5 0 -6 6 -2 13 5
7 1 7 -12 -3 -10 -8 -16 -10 -12 -6 10 12 -32 47 -45 39 -6 -3 -7 -1 -3 5 4 7
1 12 -9 12 -9 0 -13 4 -10 10 3 6 -1 7 -9 4 -11 -4 -16 0 -16 12 0 16 -2 17
-10 4 -6 -10 -10 -11 -10 -2 0 6 -7 12 -16 12 -8 0 -13 4 -10 9 3 5 -1 12 -10
15 -10 4 -13 2 -9 -7 4 -6 0 -4 -8 6 -8 9 -22 17 -31 17 -9 0 -16 5 -16 11 0
5 -4 8 -9 5 -5 -3 -11 1 -15 9 -3 8 -12 15 -21 15 -8 0 -15 5 -15 11 0 8 -4 8
-13 1 -10 -8 -20 -4 -43 16 -16 15 -36 28 -44 30 -7 2 -20 11 -28 20 -12 16
-13 15 -8 -3 5 -17 4 -18 -7 -5 -7 8 -23 21 -36 28 -19 11 -22 11 -16 0 3 -7
-1 -4 -9 6 -12 15 -16 16 -16 5 -1 -10 -3 -10 -11 3 -5 9 -16 15 -24 12 -8 -4
-17 1 -21 9 -3 9 -12 13 -20 10 -8 -3 -14 0 -14 6 0 6 -5 11 -11 11 -5 0 -7
-6 -4 -12 4 -7 -3 -2 -14 11 -20 22 -25 21 -22 -4 1 -5 -5 -2 -13 9 -9 11 -22
16 -31 13 -9 -4 -15 -1 -15 7 0 7 -8 13 -17 13 -41 0 -54 4 -48 13 4 6 3 10
-2 9 -24 -4 -73 2 -69 9 2 4 -4 9 -15 9 -12 1 -17 -3 -13 -10 3 -7 0 -5 -8 4
-7 9 -19 14 -25 12 -7 -3 -13 1 -13 7 0 10 -4 10 -15 0 -9 -7 -15 -8 -15 -2 0
5 -13 9 -29 8 -16 -1 -29 2 -28 7 1 5 -4 12 -12 15 -8 2 -11 0 -8 -5 3 -5 0
-10 -8 -10 -8 0 -11 5 -8 10 3 5 0 7 -8 5 -8 -3 -30 1 -50 8 -27 9 -40 9 -48
1 -8 -8 -11 -8 -11 2 0 7 -4 10 -9 6 -5 -3 -13 0 -17 6 -5 9 -11 7 -21 -6 -13
-18 -13 -18 -13 1 0 10 -4 15 -8 9 -8 -11 -47 -13 -57 -3 -4 4 -14 4 -23 1
-11 -5 -13 -3 -7 8 6 11 5 12 -6 2 -7 -7 -17 -13 -22 -13 -4 0 -5 6 -1 13 5 8
2 8 -9 -2 -9 -7 -17 -9 -17 -4 0 5 -7 10 -15 10 -8 0 -12 -4 -9 -9 3 -4 0 -8
-5 -8 -6 0 -11 6 -11 13 0 9 -3 8 -9 -2 -5 -8 -11 -9 -15 -3 -7 11 -24 11 -43
-1 -6 -4 -14 -1 -16 5 -4 10 -8 9 -16 -2 -10 -13 -12 -13 -21 0 -5 8 -10 11
-10 5 0 -5 -11 -11 -25 -11 -16 -1 -22 2 -18 10 4 6 -1 5 -10 -3 -14 -11 -17
-11 -17 0 0 11 -2 11 -10 -1 -9 -13 -10 -13 -10 0 0 13 -2 13 -9 1 -8 -12 -13
-12 -24 -3 -11 10 -17 9 -27 -3z m-430 -65 c0 -5 -5 -10 -11 -10 -5 0 -7 5 -4
10 3 6 8 10 11 10 2 0 4 -4 4 -10z m2955 -1390 c3 -5 2 -10 -4 -10 -5 0 -13 5
-16 10 -3 6 -2 10 4 10 5 0 13 -4 16 -10z m-4900 -1549 c3 -5 2 -12 -3 -15 -5
-3 -9 1 -9 9 0 17 3 19 12 6z m956 -1628 c13 -16 12 -17 -3 -4 -10 7 -18 15
-18 17 0 8 8 3 21 -13z m99 -73 c0 -5 -2 -10 -4 -10 -3 0 -8 5 -11 10 -3 6 -1
10 4 10 6 0 11 -4 11 -10z m915 -418 c-3 -3 -11 0 -18 7 -9 10 -8 11 6 5 10
-3 15 -9 12 -12z"/>
<path d="M4800 5966 c0 -2 7 -9 15 -16 9 -7 15 -8 15 -2 0 5 -7 12 -15 16 -8
3 -15 4 -15 2z"/>
<path d="M1280 4789 c0 -5 5 -7 10 -4 6 3 10 8 10 11 0 2 -4 4 -10 4 -5 0 -10
-5 -10 -11z"/>
<path d="M6180 4116 c0 -2 7 -7 16 -10 8 -3 12 -2 9 4 -6 10 -25 14 -25 6z"/>
</g>
</svg>
