<svg width="22" height="22" viewBox="0 0 22 22" fill="none" xmlns="http://www.w3.org/2000/svg">
<path d="M16 5H16.75C16.75 4.58579 16.4142 4.25 16 4.25V5ZM16 8V8.75C16.4142 8.75 16.75 8.41421 16.75 8H16ZM12.5 21H11.75C11.75 21.4142 12.0858 21.75 12.5 21.75V21ZM9.5 21V21.75C9.91421 21.75 10.25 21.4142 10.25 21H9.5ZM9.5 14H10.25C10.25 13.5858 9.91421 13.25 9.5 13.25V14ZM6 14H5.25C5.25 14.4142 5.58579 14.75 6 14.75V14ZM6 11V10.25C5.58579 10.25 5.25 10.5858 5.25 11H6ZM9.5 11V11.75C9.91421 11.75 10.25 11.4142 10.25 11H9.5ZM12.5 11H11.75C11.75 11.4142 12.0858 11.75 12.5 11.75V11ZM16 11H16.75C16.75 10.5858 16.4142 10.25 16 10.25V11ZM16 14V14.75C16.4142 14.75 16.75 14.4142 16.75 14H16ZM12.5 14V13.25C12.0858 13.25 11.75 13.5858 11.75 14H12.5ZM5 1.75H17V0.25H5V1.75ZM20.25 5V17H21.75V5H20.25ZM1.75 17V5H0.25V17H1.75ZM5 20.25C3.20507 20.25 1.75 18.7949 1.75 17H0.25C0.25 19.6234 2.37665 21.75 5 21.75V20.25ZM20.25 17C20.25 18.7949 18.7949 20.25 17 20.25V21.75C19.6234 21.75 21.75 19.6234 21.75 17H20.25ZM17 1.75C18.7949 1.75 20.25 3.20507 20.25 5H21.75C21.75 2.37665 19.6234 0.25 17 0.25V1.75ZM5 0.25C2.37665 0.25 0.25 2.37665 0.25 5H1.75C1.75 3.20507 3.20507 1.75 5 1.75V0.25ZM13.5 5.75H16V4.25H13.5V5.75ZM15.25 5V8H16.75V5H15.25ZM16 7.25H13.5V8.75H16V7.25ZM10.25 21V14H8.75V21H10.25ZM9.5 13.25H6V14.75H9.5V13.25ZM6.75 14V11H5.25V14H6.75ZM6 11.75H9.5V10.25H6V11.75ZM10.25 11V9H8.75V11H10.25ZM11.75 9V11H13.25V9H11.75ZM12.5 11.75H16V10.25H12.5V11.75ZM15.25 11V14H16.75V11H15.25ZM11.75 14V21H13.25V14H11.75ZM16 13.25H12.5V14.75H16V13.25ZM17 20.25H12.5V21.75H17V20.25ZM9.5 20.25H5V21.75H9.5V20.25ZM13.5 7.25C12.5335 7.25 11.75 8.0335 11.75 9H13.25C13.25 8.86193 13.3619 8.75 13.5 8.75V7.25ZM13.5 4.25C10.8766 4.25 8.75 6.37665 8.75 9H10.25C10.25 7.20507 11.7051 5.75 13.5 5.75V4.25Z" fill="white"/>
</svg>
