<svg width="363" height="562" viewBox="0 0 363 562" fill="none" xmlns="http://www.w3.org/2000/svg">
<path d="M66 10C66 4.47715 70.4772 0 76 0H353C358.523 0 363 4.47715 363 10V369C363 380.046 354.046 389 343 389H166C110.772 389 66 344.228 66 289V10Z" fill="#0540F2"/>
<path d="M2.99997 356.5L3.48357 356.373L2.99997 356.5ZM292.5 432L292.272 432.445L292.5 432ZM190 515.788L189.508 515.874L190 515.788ZM145 557.5L149.503 561.114L150.381 555.408L145 557.5ZM60.8503 289.523C47.834 293.611 30.6551 300.36 18.0265 311.081C11.7074 316.446 6.51003 322.819 3.55318 330.369C0.593649 337.926 -0.108992 346.63 2.51637 356.627L3.48357 356.373C0.908935 346.57 1.60632 338.082 4.48432 330.734C7.365 323.379 12.4427 317.133 18.6736 311.844C31.1451 301.256 48.1662 294.555 61.15 290.477L60.8503 289.523ZM2.51637 356.627C4.17166 362.93 9.00111 370.408 16.1845 378.654C23.3784 386.911 32.9755 395.986 44.2323 405.484C66.7468 424.479 95.9381 445.195 125.917 464.483C155.897 483.772 186.676 501.639 212.372 514.936C225.219 521.585 236.801 527.093 246.38 531.066C255.943 535.033 263.557 537.489 268.448 537.997L268.552 537.003C263.818 536.511 256.323 534.108 246.763 530.143C237.219 526.184 225.664 520.689 212.831 514.048C187.167 500.767 156.415 482.916 126.458 463.642C96.4994 444.367 67.3469 423.677 44.8771 404.719C33.6417 395.24 24.0864 386.202 16.9385 377.997C9.78008 369.78 5.07828 362.445 3.48357 356.373L2.51637 356.627ZM268.448 537.997C287.925 540.021 299.84 530.643 306.855 520.026C310.357 514.726 312.64 509.116 314.049 504.457C315.454 499.809 316 496.069 316 494.5H315C315 495.931 314.483 499.566 313.092 504.168C311.704 508.759 309.456 514.274 306.02 519.474C299.16 529.857 287.575 538.979 268.552 537.003L268.448 537.997ZM316 494.5C316 488.79 330.085 450.738 292.729 431.555L292.272 432.445C328.915 451.262 315 488.21 315 494.5H316ZM292.729 431.555C289.371 429.831 285.115 429.222 280.291 429.524C275.464 429.827 270.033 431.045 264.298 433.009C252.826 436.937 240.078 443.871 228.388 452.547C216.699 461.224 206.045 471.661 198.778 482.612C191.516 493.556 187.601 505.072 189.508 515.874L190.493 515.701C188.649 505.253 192.421 494.001 199.612 483.165C206.798 472.335 217.361 461.978 228.984 453.35C240.607 444.723 253.265 437.844 264.622 433.955C270.3 432.01 275.64 430.818 280.354 430.522C285.071 430.226 289.129 430.831 292.272 432.445L292.729 431.555ZM189.508 515.874C191.97 529.827 185.362 540.201 176.396 547.149C167.41 554.112 156.123 557.575 149.438 557.684L149.454 558.684C156.373 558.571 167.867 555.024 177.009 547.939C186.171 540.839 193.038 530.125 190.493 515.701L189.508 515.874Z" fill="#0540F2"/>
</svg>
