<svg width="863" height="764" viewBox="0 0 863 764" fill="none" xmlns="http://www.w3.org/2000/svg">
<path fill-rule="evenodd" clip-rule="evenodd" d="M530.06 10C530.06 4.47715 525.583 0 520.06 0H10C4.47715 0 0 4.47714 0 9.99998V544.724C0 550.247 4.47717 554.724 10 554.724H322.94C328.463 554.724 332.94 559.201 332.94 564.724V754C332.94 759.523 337.417 764 342.94 764H853C858.523 764 863 759.523 863 754V219.276C863 213.753 858.523 209.276 853 209.276H540.06C534.537 209.276 530.06 204.799 530.06 199.276V10Z" fill="#2BC397"/>
</svg>
