<svg width="319" height="273" viewBox="0 0 319 273" fill="none" xmlns="http://www.w3.org/2000/svg">
<path d="M2.99997 67.5L3.48357 67.373L2.99997 67.5ZM292.5 143L292.272 143.445L292.5 143ZM190 226.788L189.508 226.874L190 226.788ZM145 268.5L149.503 272.114L150.381 266.408L145 268.5ZM60.8503 0.522978C47.834 4.61142 30.6551 11.3604 18.0265 22.0813C11.7074 27.4458 6.51003 33.8194 3.55318 41.3692C0.593649 48.9259 -0.108992 57.6304 2.51637 67.627L3.48357 67.373C0.908935 57.5696 1.60632 49.0824 4.48432 41.7339C7.365 34.3785 12.4427 28.1333 18.6736 22.8437C31.1451 12.2562 48.1662 5.55525 61.15 1.47702L60.8503 0.522978ZM2.51637 67.627C4.17166 73.9298 9.00111 81.4079 16.1845 89.6536C23.3784 97.9115 32.9755 106.986 44.2323 116.484C66.7468 135.479 95.9381 156.195 125.917 175.483C155.897 194.772 186.676 212.639 212.372 225.936C225.219 232.585 236.801 238.093 246.38 242.066C255.943 246.033 263.557 248.489 268.448 248.997L268.552 248.003C263.818 247.511 256.323 245.108 246.763 241.143C237.219 237.184 225.664 231.689 212.831 225.048C187.167 211.767 156.415 193.916 126.458 174.642C96.4994 155.367 67.3469 134.677 44.8771 115.719C33.6417 106.24 24.0864 97.2018 16.9385 88.9968C9.78008 80.7796 5.07828 73.4452 3.48357 67.373L2.51637 67.627ZM268.448 248.997C287.925 251.021 299.84 241.643 306.855 231.026C310.357 225.726 312.64 220.116 314.049 215.457C315.454 210.809 316 207.069 316 205.5H315C315 206.931 314.483 210.566 313.092 215.168C311.704 219.759 309.456 225.274 306.02 230.474C299.16 240.857 287.575 249.979 268.552 248.003L268.448 248.997ZM316 205.5C316 199.79 330.085 161.738 292.729 142.555L292.272 143.445C328.915 162.262 315 199.21 315 205.5H316ZM292.729 142.555C289.371 140.831 285.115 140.222 280.291 140.524C275.464 140.827 270.033 142.045 264.298 144.009C252.826 147.937 240.078 154.871 228.388 163.547C216.699 172.224 206.045 182.661 198.778 193.612C191.516 204.556 187.601 216.072 189.508 226.874L190.493 226.701C188.649 216.253 192.421 205.001 199.612 194.165C206.798 183.335 217.361 172.978 228.984 164.35C240.607 155.723 253.265 148.844 264.622 144.955C270.3 143.01 275.64 141.818 280.354 141.522C285.071 141.226 289.129 141.831 292.272 143.445L292.729 142.555ZM189.508 226.874C191.97 240.827 185.362 251.201 176.396 258.149C167.41 265.112 156.123 268.575 149.438 268.684L149.454 269.684C156.373 269.571 167.867 266.024 177.009 258.939C186.171 251.839 193.038 241.125 190.493 226.701L189.508 226.874Z" fill="#0540F2"/>
</svg>
