<svg width="22" height="22" viewBox="0 0 22 22" fill="none" xmlns="http://www.w3.org/2000/svg">
<path d="M6.72984 20.045L7.05049 19.367C6.91227 19.3017 6.75737 19.2801 6.60654 19.3052L6.72984 20.045ZM1.93565 15.229L2.67598 15.3491C2.70008 15.2004 2.67887 15.0479 2.61511 14.9115L1.93565 15.229ZM2.37452 20.7709L2.25122 20.0311L2.37452 20.7709ZM20.25 11C20.25 16.1086 16.1087 20.25 11 20.25V21.75C16.9371 21.75 21.75 16.9371 21.75 11H20.25ZM1.75003 11C1.75003 5.89137 5.89139 1.75 11 1.75V0.25C5.06296 0.25 0.250027 5.06294 0.250027 11H1.75003ZM11 1.75C16.1087 1.75 20.25 5.89137 20.25 11H21.75C21.75 5.06294 16.9371 0.25 11 0.25V1.75ZM2.49782 21.5107L6.85314 20.7848L6.60654 19.3052L2.25122 20.0311L2.49782 21.5107ZM11 20.25C9.58562 20.25 8.24734 19.9331 7.05049 19.367L6.40919 20.723C7.80232 21.3819 9.35922 21.75 11 21.75V20.25ZM2.61511 14.9115C2.0603 13.7244 1.75003 12.3995 1.75003 11H0.250027C0.250027 12.6234 0.610388 14.1648 1.25619 15.5466L2.61511 14.9115ZM1.19532 15.109L0.482681 19.5045L1.96335 19.7445L2.67598 15.3491L1.19532 15.109ZM2.25122 20.0311C2.08248 20.0592 1.93597 19.9134 1.96335 19.7445L0.482681 19.5045C0.291029 20.6865 1.3166 21.7076 2.49782 21.5107L2.25122 20.0311Z" fill="white"/>
<path d="M15 14.1111V13.6749C15 13.1331 14.6701 12.6458 14.167 12.4446L13.7005 12.258C13.1789 12.0494 12.5845 12.2753 12.3333 12.7778C12.3333 12.7778 11.2222 12.5556 10.3333 11.6667C9.44444 10.7778 9.22222 9.66667 9.22222 9.66667C9.72465 9.41545 9.95064 8.82105 9.74202 8.29949L9.55541 7.83296C9.35418 7.32988 8.86693 7 8.32509 7H7.88889C7.39797 7 7 7.39797 7 7.88889C7 11.8162 10.1838 15 14.1111 15C14.602 15 15 14.602 15 14.1111Z" fill="white"/>
</svg>
